<?xml version="1.0" standalone="no"?>
<!DOCTYPE svg PUBLIC "-//W3C//DTD SVG 20010904//EN"
 "http://www.w3.org/TR/2001/REC-SVG-20010904/DTD/svg10.dtd">
<svg version="1.0" xmlns="http://www.w3.org/2000/svg"
 width="64.000000pt" height="64.000000pt" viewBox="0 0 64.000000 64.000000"
 preserveAspectRatio="xMidYMid meet">

<g transform="translate(0.000000,64.000000) scale(0.100000,-0.100000)"
fill="#000000" stroke="none">
<path d="M413 393 c-45 -46 -89 -83 -96 -83 -8 0 -22 -9 -32 -20 -23 -25 -31
-25 -38 1 -4 15 -12 20 -29 17 -31 -4 -38 -47 -9 -55 14 -3 21 -13 21 -29 0
-21 5 -24 40 -24 36 0 40 3 40 25 0 14 5 25 10 25 6 0 10 -11 10 -25 0 -22 4
-25 40 -25 36 0 40 3 40 25 0 14 5 25 10 25 6 0 10 -12 10 -26 0 -26 1 -26 51
-22 63 6 100 33 118 85 13 36 12 43 -5 79 -11 23 -32 45 -50 54 -18 8 -36 24
-40 35 -8 18 -17 12 -91 -62z m157 -88 c0 -20 -45 -65 -65 -65 -22 0 -19 6 18
45 36 38 47 42 47 20z m-340 -25 c0 -5 -4 -10 -10 -10 -5 0 -10 5 -10 10 0 6
5 10 10 10 6 0 10 -4 10 -10z m100 0 c0 -5 -4 -10 -10 -10 -5 0 -10 5 -10 10
0 6 5 10 10 10 6 0 10 -4 10 -10z m100 0 c0 -5 -4 -10 -10 -10 -5 0 -10 5 -10
10 0 6 5 10 10 10 6 0 10 -4 10 -10z"/>
<path d="M170 220 l-35 -19 38 -1 c30 0 37 3 37 20 0 11 -1 20 -2 20 -2 -1
-19 -9 -38 -20z"/>
<path d="M90 84 c-11 -12 -10 -18 3 -32 16 -15 18 -15 34 0 13 14 14 20 3 32
-16 20 -24 20 -40 0z m30 -14 c0 -5 -4 -10 -10 -10 -5 0 -10 5 -10 10 0 6 5
10 10 10 6 0 10 -4 10 -10z"/>
<path d="M300 84 c-11 -12 -10 -18 3 -32 16 -15 18 -15 34 0 13 14 14 20 3 32
-16 20 -24 20 -40 0z m30 -14 c0 -5 -4 -10 -10 -10 -5 0 -10 5 -10 10 0 6 5
10 10 10 6 0 10 -4 10 -10z"/>
<path d="M510 84 c-11 -12 -10 -18 3 -32 16 -15 18 -15 34 0 13 14 14 20 3 32
-16 20 -24 20 -40 0z m30 -14 c0 -5 -4 -10 -10 -10 -5 0 -10 5 -10 10 0 6 5
10 10 10 6 0 10 -4 10 -10z"/>
</g>
</svg>
